<?xml version="1.0" encoding="UTF-8" standalone="no"?>
<svg
   xmlns:dc="http://purl.org/dc/elements/1.1/"
   xmlns:cc="http://creativecommons.org/ns#"
   xmlns:rdf="http://www.w3.org/1999/02/22-rdf-syntax-ns#"
   xmlns:svg="http://www.w3.org/2000/svg"
   xmlns="http://www.w3.org/2000/svg"
   version="1.1"
   id="svg3425"
   viewBox="0 0 158.3308 130.07826"
   height="36.710976mm"
   width="44.684471mm">
  <defs
     id="defs3427" />
  <metadata
     id="metadata3430">
    <rdf:RDF>
      <cc:Work
         rdf:about="">
        <dc:format>image/svg+xml</dc:format>
        <dc:type
           rdf:resource="http://purl.org/dc/dcmitype/StillImage" />
        <dc:title></dc:title>
      </cc:Work>
    </rdf:RDF>
  </metadata>
  <g
     transform="translate(-115.12031,-535.89451)"
     id="layer1">
    <g
       id="text4152"
       style="font-style:italic;font-variant:normal;font-weight:normal;font-stretch:normal;font-size:30px;line-height:125%;font-family:Cuprum;-inkscape-font-specification:'Cuprum Italic';letter-spacing:5px;word-spacing:0px;fill:#ffffff;fill-opacity:1;stroke:none;stroke-width:1px;stroke-linecap:butt;stroke-linejoin:miter;stroke-opacity:1">
      <path
         id="path3453"
         style=""
         d="m 142.26859,624.22278 -2.25,0 0,-0.9 -0.15,0 q -0.69,0.57 -1.59,0.9 -0.87,0.3 -1.77,0.3 -1.17,0 -2.04,-0.36 -0.87,-0.39 -1.35,-1.29 -0.45,-0.9 -0.54,-2.4 -0.06,-1.5 0.36,-3.75 0.39,-2.25 0.99,-3.75 0.6,-1.5 1.47,-2.4 0.9,-0.9 2.04,-1.26 1.17,-0.39 2.7,-0.39 1.35,0 2.46,0.24 1.14,0.21 2.19,0.66 l -2.52,14.4 z m -2.43,-13.5 q -0.72,0 -1.35,0.27 -0.63,0.27 -1.17,0.96 -0.51,0.66 -0.96,1.83 -0.42,1.14 -0.72,2.94 -0.33,1.8 -0.33,2.97 0.03,1.17 0.3,1.86 0.3,0.66 0.84,0.93 0.54,0.24 1.26,0.24 0.57,0 1.2,-0.18 0.63,-0.18 1.02,-0.42 l 2.01,-11.4 -2.1,0 z" />
      <path
         id="path3455"
         style=""
         d="m 153.8639,624.22278 -2.7,0 2.64,-15 2.28,0 -0.06,1.2 0.15,0 q 0.6,-0.45 1.59,-0.81 0.99,-0.39 2.34,-0.39 l 1.5,0 -0.42,2.25 -3,0 q -0.57,0 -1.14,0.15 -0.54,0.12 -1.05,0.45 l -2.13,12.15 z" />
      <path
         id="path3457"
         style=""
         d="m 173.86905,610.72278 q -0.84,0 -1.53,0.27 -0.69,0.27 -1.26,0.96 -0.54,0.66 -0.99,1.83 -0.42,1.14 -0.72,2.94 -0.33,1.8 -0.33,2.97 0.03,1.17 0.36,1.86 0.36,0.66 1.02,0.93 0.66,0.24 1.62,0.24 l 3,0 -0.21,1.2 q -0.69,0.24 -1.74,0.42 -1.05,0.18 -1.95,0.18 -1.53,0 -2.58,-0.36 -1.02,-0.39 -1.59,-1.29 -0.54,-0.9 -0.63,-2.4 -0.09,-1.5 0.33,-3.75 0.39,-2.25 0.99,-3.75 0.6,-1.5 1.44,-2.4 0.84,-0.9 1.95,-1.26 1.11,-0.39 2.52,-0.39 0.9,0 1.89,0.18 0.99,0.18 1.62,0.42 l -0.21,1.2 -3,0 z" />
      <path
         id="path3459"
         style=""
         d="m 189.82609,610.72278 q -0.84,0 -1.53,0.27 -0.69,0.27 -1.26,0.96 -0.54,0.66 -0.99,1.83 -0.42,1.14 -0.72,2.94 -0.33,1.8 -0.33,2.97 0.03,1.17 0.36,1.86 0.36,0.66 1.02,0.93 0.66,0.24 1.62,0.24 l 3,0 -0.21,1.2 q -0.69,0.24 -1.74,0.42 -1.05,0.18 -1.95,0.18 -1.53,0 -2.58,-0.36 -1.02,-0.39 -1.59,-1.29 -0.54,-0.9 -0.63,-2.4 -0.09,-1.5 0.33,-3.75 0.39,-2.25 0.99,-3.75 0.6,-1.5 1.44,-2.4 0.84,-0.9 1.95,-1.26 1.11,-0.39 2.52,-0.39 0.9,0 1.89,0.18 0.99,0.18 1.62,0.42 l -0.21,1.2 -3,0 z" />
      <path
         id="path3461"
         style=""
         d="m 206.98312,616.72278 q 0.3,-1.8 0.27,-2.97 0,-1.2 -0.27,-1.89 -0.27,-0.72 -0.75,-0.99 -0.45,-0.3 -1.02,-0.3 -0.57,0 -1.14,0.3 -0.57,0.27 -1.08,0.99 -0.51,0.69 -0.96,1.89 -0.45,1.17 -0.75,2.97 -0.33,1.8 -0.33,3 0.03,1.17 0.3,1.89 0.27,0.69 0.72,0.99 0.48,0.27 1.05,0.27 0.57,0 1.14,-0.27 0.57,-0.3 1.08,-0.99 0.51,-0.72 0.96,-1.89 0.45,-1.2 0.78,-3 z m 2.7,0 q -0.39,2.19 -1.02,3.69 -0.63,1.5 -1.5,2.43 -0.84,0.9 -1.95,1.29 -1.11,0.39 -2.46,0.39 -1.35,0 -2.34,-0.39 -0.96,-0.39 -1.5,-1.29 -0.54,-0.93 -0.63,-2.43 -0.09,-1.5 0.3,-3.69 0.39,-2.19 0.99,-3.69 0.63,-1.5 1.47,-2.4 0.87,-0.93 1.98,-1.32 1.11,-0.39 2.46,-0.39 1.35,0 2.31,0.39 0.99,0.39 1.53,1.32 0.54,0.9 0.63,2.4 0.12,1.5 -0.27,3.69 z" />
      <path
         id="path3463"
         style=""
         d="m 227.55124,611.02278 -8.7,11.25 6.57,0 -0.33,1.95 -9.75,0 0.3,-1.8 8.73,-11.25 -6.45,0 0.36,-1.95 9.6,0 -0.33,1.8 z" />
      <path
         id="path3465"
         style=""
         d="m 242.81546,624.22278 -2.25,0 0,-0.9 -0.15,0 q -0.69,0.57 -1.59,0.9 -0.87,0.3 -1.77,0.3 -1.17,0 -2.04,-0.36 -0.87,-0.39 -1.35,-1.29 -0.45,-0.9 -0.54,-2.4 -0.06,-1.5 0.36,-3.75 0.39,-2.25 0.99,-3.75 0.6,-1.5 1.47,-2.4 0.9,-0.9 2.04,-1.26 1.17,-0.39 2.7,-0.39 1.35,0 2.46,0.24 1.14,0.21 2.19,0.66 l -2.52,14.4 z m -2.43,-13.5 q -0.72,0 -1.35,0.27 -0.63,0.27 -1.17,0.96 -0.51,0.66 -0.96,1.83 -0.42,1.14 -0.72,2.94 -0.33,1.8 -0.33,2.97 0.03,1.17 0.3,1.86 0.3,0.66 0.84,0.93 0.54,0.24 1.26,0.24 0.57,0 1.2,-0.18 0.63,-0.18 1.02,-0.42 l 2.01,-11.4 -2.1,0 z" />
    </g>
    <path
       id="path4150-2"
       d="m 237.36752,598.39438 c 0,0 -23.28655,-40.33328 -34.92968,-60.5 -11.64479,20.16577 -34.9297,60.5 -34.9297,60.5 m -17.32031,30 -17.0332,29.49999 69.28321,0 69.28125,0 -17.03125,-29.49999"
       style="fill:none;fill-opacity:1;stroke:#e74b43;stroke-width:2;stroke-miterlimit:4;stroke-dasharray:none;stroke-opacity:1" />
    <path
       id="path4150-2-1"
       d="m 220.19926,605.97277 c 0,0 -23.28655,-40.33328 -34.92968,-60.5 -11.64478,20.16577 -34.92969,60.5 -34.92969,60.5 m -17.32031,29.99999 -17.03321,29.5 69.28321,0 69.28125,0 -17.03125,-29.5"
       style="fill:none;fill-opacity:1;stroke:#e74b43;stroke-opacity:1" />
    <g
       id="text4256"
       style="font-style:normal;font-variant:normal;font-weight:normal;font-stretch:normal;font-size:40px;line-height:125%;font-family:Birchwood;-inkscape-font-specification:Birchwood;letter-spacing:0px;word-spacing:0px;fill:#ffffff;fill-opacity:1;stroke:none;stroke-width:1px;stroke-linecap:butt;stroke-linejoin:miter;stroke-opacity:1">
      <path
         id="path3450"
         style=""
         d="m 193.94831,637.12278 q 0,-0.32 0.2,-0.64 0.2,-0.36 0.52,-0.64 0.32,-0.32 0.64,-0.6 0.36,-0.28 0.68,-0.52 0.8,-0.6 1.44,-0.92 0.68,-0.36 1.16,-0.36 0.6,0 1.12,0.52 0.56,0.52 1.08,1.44 0.44,0.8 0.92,1.32 0.52,0.48 1,0.48 1.2,0 2.16,-0.76 0.96,-0.76 1.64,-1.6 0.32,-0.4 0.4,-0.36 0.32,0.16 0.4,0.64 0.08,0.48 0.08,0.8 0,0.12 -0.08,0.36 -0.04,0.2 -0.28,0.48 -0.2,0.28 -0.64,0.64 -0.4,0.32 -1.16,0.72 -1.48,0.76 -2.92,0.76 -0.84,0 -1.4,-0.44 -0.56,-0.48 -1.08,-1.36 -0.64,-1.08 -0.92,-1.4 -0.24,-0.32 -0.48,-0.32 -0.44,0 -0.96,0.4 -0.48,0.36 -1,0.84 -0.52,0.44 -1.08,0.84 -0.52,0.36 -1,0.36 -0.44,0 -0.44,-0.68 z" />
    </g>
  </g>
</svg>
