<?xml version="1.0" encoding="UTF-8" standalone="no"?>
<svg
   xmlns:dc="http://purl.org/dc/elements/1.1/"
   xmlns:cc="http://creativecommons.org/ns#"
   xmlns:rdf="http://www.w3.org/1999/02/22-rdf-syntax-ns#"
   xmlns:svg="http://www.w3.org/2000/svg"
   xmlns="http://www.w3.org/2000/svg"
   version="1.1"
   id="svg2"
   viewBox="0 0 1000 1000"
   height="1000"
   width="1000">
  <defs
     id="defs4" />
  <metadata
     id="metadata7">
    <rdf:RDF>
      <cc:Work
         rdf:about="">
        <dc:format>image/svg+xml</dc:format>
        <dc:type
           rdf:resource="http://purl.org/dc/dcmitype/StillImage" />
        <dc:title></dc:title>
      </cc:Work>
    </rdf:RDF>
  </metadata>
  <g
     transform="translate(0,-52.362161)"
     id="layer1">
    <g
       id="text3336"
       style="font-style:normal;font-variant:normal;font-weight:normal;font-stretch:normal;font-size:40px;line-height:200%;font-family:'Open Sans';-inkscape-font-specification:'Open Sans';letter-spacing:0px;word-spacing:0px;fill:#333333;fill-opacity:1;stroke:none;stroke-width:1px;stroke-linecap:butt;stroke-linejoin:miter;stroke-opacity:1">
      <path
         id="path4232"
         style=""
         d="m 372.60812,380.19415 q 0,4.33594 -2.96875,6.67969 -2.94921,2.32422 -8.45703,2.32422 l -3.35937,0 0,11.23047 -3.32031,0 0,-28.55469 7.40234,0 q 10.70312,0 10.70312,8.32031 z m -14.78515,6.15235 2.98828,0 q 4.41406,0 6.38672,-1.42578 1.97265,-1.42579 1.97265,-4.57032 0,-2.83203 -1.85546,-4.21875 -1.85547,-1.38672 -5.78125,-1.38672 l -3.71094,0 0,11.60157 z" />
      <path
         id="path4234"
         style=""
         d="m 396.55344,389.70587 q 0,5.23438 -2.63672,8.1836 -2.63672,2.92968 -7.28516,2.92968 -2.87109,0 -5.09765,-1.34765 -2.22657,-1.34766 -3.4375,-3.86719 -1.21094,-2.51953 -1.21094,-5.89844 0,-5.23437 2.61719,-8.14453 2.61718,-2.92969 7.26562,-2.92969 4.49219,0 7.12891,2.98828 2.65625,2.98829 2.65625,8.08594 z m -16.3086,0 q 0,4.10156 1.64063,6.25 1.64062,2.14844 4.82422,2.14844 3.18359,0 4.82422,-2.12891 1.66015,-2.14843 1.66015,-6.26953 0,-4.08203 -1.66015,-6.1914 -1.64063,-2.12891 -4.86329,-2.12891 -3.18359,0 -4.80468,2.08984 -1.6211,2.08985 -1.6211,6.23047 z" />
      <path
         id="path4236"
         style=""
         d="m 416.02609,394.58868 q 0,2.98829 -2.22656,4.60938 -2.22656,1.62109 -6.25,1.62109 -4.25781,0 -6.64062,-1.34765 l 0,-3.00782 q 1.54296,0.78125 3.30078,1.23047 1.77734,0.44922 3.41797,0.44922 2.53906,0 3.90625,-0.80078 1.36718,-0.82031 1.36718,-2.48047 0,-1.25 -1.09375,-2.1289 -1.07422,-0.89844 -4.21875,-2.10938 -2.98828,-1.11328 -4.25781,-1.93359 -1.25,-0.83985 -1.875,-1.89453 -0.60547,-1.05469 -0.60547,-2.51954 0,-2.61718 2.12891,-4.12109 2.1289,-1.52344 5.83984,-1.52344 3.45703,0 6.75781,1.40625 l -1.15234,2.63672 q -3.22266,-1.32812 -5.83984,-1.32812 -2.30469,0 -3.47657,0.72265 -1.17187,0.72266 -1.17187,1.99219 0,0.85938 0.42969,1.46484 0.44922,0.60547 1.42578,1.15235 0.97656,0.54687 3.75,1.58203 3.80859,1.38672 5.13672,2.79297 1.34765,1.40625 1.34765,3.53515 z" />
      <path
         id="path4238"
         style=""
         d="m 428.19406,398.14337 q 0.85938,0 1.66016,-0.11719 0.80078,-0.13671 1.26953,-0.27343 l 0,2.48047 q -0.52734,0.2539 -1.5625,0.41015 -1.01563,0.17578 -1.83594,0.17578 -6.21094,0 -6.21094,-6.54297 l 0,-12.73437 -3.0664,0 0,-1.5625 3.0664,-1.34766 1.36719,-4.57031 1.875,0 0,4.96094 6.21094,0 0,2.51953 -6.21094,0 0,12.59766 q 0,1.93359 0.91797,2.96875 0.91797,1.03515 2.51953,1.03515 z" />
      <path
         id="path4240"
         style=""
         d="m 448.13547,374.43243 q -4.70703,0 -7.44141,3.14454 -2.71484,3.125 -2.71484,8.57421 0,5.60547 2.61719,8.67188 2.63671,3.04687 7.5,3.04687 2.98828,0 6.8164,-1.07421 l 0,2.91015 q -2.96875,1.11328 -7.32422,1.11328 -6.30859,0 -9.74609,-3.82812 -3.41797,-3.82813 -3.41797,-10.87891 0,-4.41406 1.64063,-7.73437 1.66015,-3.32032 4.76562,-5.11719 3.125,-1.79688 7.34375,-1.79688 4.49219,0 7.85156,1.64063 l -1.40625,2.85156 q -3.24218,-1.52344 -6.48437,-1.52344 z" />
      <path
         id="path4242"
         style=""
         d="m 477.25656,392.83087 q 0,3.76953 -2.73437,5.87891 -2.73438,2.10937 -7.42188,2.10937 -5.07812,0 -7.8125,-1.30859 l 0,-3.20313 q 1.75781,0.74219 3.82813,1.17188 2.07031,0.42969 4.10156,0.42969 3.32031,0 5,-1.25 1.67969,-1.26953 1.67969,-3.51563 0,-1.48437 -0.60547,-2.42187 -0.58594,-0.95703 -1.99219,-1.75782 -1.38672,-0.80078 -4.23828,-1.8164 -3.98438,-1.42578 -5.70313,-3.37891 -1.69921,-1.95312 -1.69921,-5.09765 0,-3.30079 2.48046,-5.25391 2.48047,-1.95313 6.5625,-1.95313 4.25782,0 7.83204,1.5625 l -1.03516,2.89063 q -3.53516,-1.48438 -6.875,-1.48438 -2.63672,0 -4.12109,1.13282 -1.48438,1.13281 -1.48438,3.14453 0,1.48437 0.54688,2.4414 0.54687,0.9375 1.83593,1.73829 1.3086,0.78125 3.98438,1.73828 4.49219,1.60156 6.17187,3.4375 1.69922,1.83593 1.69922,4.76562 z" />
      <path
         id="path4244"
         style=""
         d="m 499.20969,392.83087 q 0,3.76953 -2.73438,5.87891 -2.73437,2.10937 -7.42187,2.10937 -5.07813,0 -7.8125,-1.30859 l 0,-3.20313 q 1.75781,0.74219 3.82812,1.17188 2.07031,0.42969 4.10156,0.42969 3.32032,0 5,-1.25 1.67969,-1.26953 1.67969,-3.51563 0,-1.48437 -0.60547,-2.42187 -0.58593,-0.95703 -1.99218,-1.75782 -1.38672,-0.80078 -4.23829,-1.8164 -3.98437,-1.42578 -5.70312,-3.37891 -1.69922,-1.95312 -1.69922,-5.09765 0,-3.30079 2.48047,-5.25391 2.48047,-1.95313 6.5625,-1.95313 4.25781,0 7.83203,1.5625 l -1.03516,2.89063 q -3.53515,-1.48438 -6.875,-1.48438 -2.63671,0 -4.12109,1.13282 -1.48437,1.13281 -1.48437,3.14453 0,1.48437 0.54687,2.4414 0.54688,0.9375 1.83594,1.73829 1.30859,0.78125 3.98437,1.73828 4.49219,1.60156 6.17188,3.4375 1.69922,1.83593 1.69922,4.76562 z" />
    </g>
    <g
       id="text3340"
       style="font-style:normal;font-variant:normal;font-weight:normal;font-stretch:normal;font-size:40px;line-height:200%;font-family:'Open Sans';-inkscape-font-specification:'Open Sans';letter-spacing:0px;word-spacing:0px;fill:#000000;fill-opacity:1;stroke:none;stroke-width:1px;stroke-linecap:butt;stroke-linejoin:miter;stroke-opacity:1">
      <path
         id="path4219"
         style="font-style:normal;font-variant:normal;font-weight:normal;font-stretch:normal;font-size:180px;font-family:'Open Sans';-inkscape-font-specification:'Open Sans'"
         d="m 355.22729,567.15289 0,-128.49609 14.94141,0 0,114.96094 56.68945,0 0,13.53515 -71.63086,0 z" />
      <path
         id="path4221"
         style="font-style:normal;font-variant:normal;font-weight:normal;font-stretch:normal;font-size:180px;font-family:'Open Sans';-inkscape-font-specification:'Open Sans'"
         d="m 505.78394,567.15289 -2.9004,-13.71093 -0.70312,0 q -7.20703,9.05273 -14.41406,12.30468 -7.11914,3.16407 -17.8418,3.16407 -14.32617,0 -22.5,-7.38282 -8.08594,-7.38281 -8.08594,-21.00586 0,-29.17968 46.66992,-30.58593 l 16.34766,-0.52735 0,-5.97656 q 0,-11.33789 -4.92187,-16.69922 -4.83399,-5.44922 -15.55664,-5.44922 -12.04102,0 -27.2461,7.38281 l -4.48242,-11.1621 q 7.11914,-3.86719 15.55664,-6.06446 8.52539,-2.19726 17.05078,-2.19726 17.22656,0 25.48828,7.64648 8.34961,7.64649 8.34961,24.52149 l 0,65.74218 -10.81054,0 z m -32.95899,-10.2832 q 13.62305,0 21.35742,-7.4707 7.82227,-7.47071 7.82227,-20.91797 l 0,-8.70117 -14.58985,0.61523 q -17.40234,0.61523 -25.13671,5.44922 -7.64649,4.74609 -7.64649,14.85351 0,7.91016 4.7461,12.04102 4.83398,4.13086 13.44726,4.13086 z" />
      <path
         id="path4223"
         style="font-style:normal;font-variant:normal;font-weight:normal;font-stretch:normal;font-size:180px;font-family:'Open Sans';-inkscape-font-specification:'Open Sans'"
         d="m 531.448,470.82477 15.64453,0 21.09375,54.93164 q 6.94336,18.80859 8.61328,27.1582 l 0.70313,0 q 1.14257,-4.48242 4.74609,-15.29297 3.69141,-10.89843 23.90625,-66.79687 l 15.64453,0 -41.39648,109.6875 q -6.15235,16.25976 -14.41407,23.02734 -8.17382,6.85547 -20.12695,6.85547 -6.67969,0 -13.18359,-1.49414 l 0,-11.68945 q 4.83398,1.05468 10.81054,1.05468 15.0293,0 21.44532,-16.875 l 5.36132,-13.71093 -38.84765,-96.85547 z" />
      <path
         id="path4225"
         style="font-style:normal;font-variant:normal;font-weight:normal;font-stretch:normal;font-size:180px;font-family:'Open Sans';-inkscape-font-specification:'Open Sans'"
         d="m 720.58862,518.90094 q 0,23.55469 -11.86523,36.82617 -11.86524,13.1836 -32.7832,13.1836 -12.91993,0 -22.93946,-6.06446 -10.01953,-6.06445 -15.46875,-17.40234 -5.44922,-11.33789 -5.44922,-26.54297 0,-23.55469 11.77735,-36.65039 11.77734,-13.18359 32.69531,-13.18359 20.21484,0 32.08008,13.44726 11.95312,13.44727 11.95312,36.38672 z m -73.38867,0 q 0,18.45703 7.38281,28.125 7.38282,9.66797 21.70899,9.66797 14.32617,0 21.70898,-9.58008 7.47071,-9.66797 7.47071,-28.21289 0,-18.36914 -7.47071,-27.86133 -7.38281,-9.58008 -21.88476,-9.58008 -14.32618,0 -21.6211,9.4043 -7.29492,9.4043 -7.29492,28.03711 z" />
      <path
         id="path4227"
         style="font-style:normal;font-variant:normal;font-weight:normal;font-stretch:normal;font-size:180px;font-family:'Open Sans';-inkscape-font-specification:'Open Sans'"
         d="m 759.78784,470.82477 0,62.49023 q 0,11.77735 5.36133,17.57813 5.36133,5.80078 16.78711,5.80078 15.11719,0 22.06055,-8.26172 7.03125,-8.26172 7.03125,-26.98242 l 0,-50.625 14.58984,0 0,96.32812 -12.04102,0 -2.10937,-12.91992 -0.79102,0 q -4.48242,7.11914 -12.48047,10.89844 -7.91015,3.7793 -18.10546,3.7793 -17.57813,0 -26.36719,-8.34961 -8.70117,-8.34961 -8.70117,-26.71875 l 0,-63.01758 14.76562,0 z" />
      <path
         id="path4229"
         style="font-style:normal;font-variant:normal;font-weight:normal;font-stretch:normal;font-size:180px;font-family:'Open Sans';-inkscape-font-specification:'Open Sans'"
         d="m 887.58081,556.86969 q 3.86719,0 7.4707,-0.52734 3.60352,-0.61524 5.71289,-1.23047 l 0,11.16211 q -2.37304,1.14257 -7.03125,1.8457 -4.57031,0.79102 -8.26171,0.79102 -27.94922,0 -27.94922,-29.44336 l 0,-57.30469 -13.79883,0 0,-7.03125 13.79883,-6.06445 6.15234,-20.56641 8.4375,0 0,22.32422 27.94922,0 0,11.33789 -27.94922,0 0,56.68945 q 0,8.70117 4.13086,13.35938 4.13086,4.6582 11.33789,4.6582 z" />
    </g>
    <rect
       y="452.36215"
       x="90"
       height="20"
       width="170"
       id="rect3348"
       style="color:#000000;clip-rule:nonzero;display:inline;overflow:visible;visibility:visible;opacity:1;isolation:auto;mix-blend-mode:normal;color-interpolation:sRGB;color-interpolation-filters:linearRGB;solid-color:#000000;solid-opacity:1;fill:#000000;fill-opacity:1;fill-rule:evenodd;color-rendering:auto;image-rendering:auto;shape-rendering:auto;text-rendering:auto;enable-background:accumulate" />
    <rect
       transform="scale(1,-1)"
       y="-512.36218"
       x="120"
       height="20"
       width="170"
       id="rect3348-7"
       style="color:#000000;clip-rule:nonzero;display:inline;overflow:visible;visibility:visible;opacity:1;isolation:auto;mix-blend-mode:normal;color-interpolation:sRGB;color-interpolation-filters:linearRGB;solid-color:#000000;solid-opacity:1;fill:#000000;fill-opacity:1;fill-rule:evenodd;color-rendering:auto;image-rendering:auto;shape-rendering:auto;text-rendering:auto;enable-background:accumulate" />
    <rect
       y="532.36218"
       x="150"
       height="20"
       width="170"
       id="rect3348-7-4"
       style="color:#000000;clip-rule:nonzero;display:inline;overflow:visible;visibility:visible;opacity:1;isolation:auto;mix-blend-mode:normal;color-interpolation:sRGB;color-interpolation-filters:linearRGB;solid-color:#000000;solid-opacity:1;fill:#000000;fill-opacity:1;fill-rule:evenodd;color-rendering:auto;image-rendering:auto;shape-rendering:auto;text-rendering:auto;enable-background:accumulate" />
  </g>
</svg>
