<?xml version="1.0" encoding="UTF-8" standalone="no"?>
<svg
   xmlns:dc="http://purl.org/dc/elements/1.1/"
   xmlns:cc="http://creativecommons.org/ns#"
   xmlns:rdf="http://www.w3.org/1999/02/22-rdf-syntax-ns#"
   xmlns:svg="http://www.w3.org/2000/svg"
   xmlns="http://www.w3.org/2000/svg"
   version="1.1"
   id="svg2"
   viewBox="0 0 1080 720"
   height="720"
   width="1080">
  <defs
     id="defs4" />
  <metadata
     id="metadata7">
    <rdf:RDF>
      <cc:Work
         rdf:about="">
        <dc:format>image/svg+xml</dc:format>
        <dc:type
           rdf:resource="http://purl.org/dc/dcmitype/StillImage" />
        <dc:title></dc:title>
      </cc:Work>
    </rdf:RDF>
  </metadata>
  <g
     transform="translate(0,-332.36216)"
     id="layer1">
    <rect
       y="332.36215"
       x="0"
       height="720"
       width="1080"
       id="rect4373"
       style="color:#000000;clip-rule:nonzero;display:inline;overflow:visible;visibility:visible;opacity:1;isolation:auto;mix-blend-mode:normal;color-interpolation:sRGB;color-interpolation-filters:linearRGB;solid-color:#000000;solid-opacity:1;fill:#b340b3;fill-opacity:1;fill-rule:evenodd;color-rendering:auto;image-rendering:auto;shape-rendering:auto;text-rendering:auto;enable-background:accumulate" />
    <path
       style="fill:#4a1a4a;fill-opacity:1"
       d="m 657.38,574.98214 c 64.872,64.874 64.88,169.878 0,234.76004 -64.874,64.872 -169.878,64.88 -234.76,0 -64.872,-64.87404 -64.88,-169.87804 0,-234.76004 64.872,-64.871 169.878,-64.881 234.76,0 z M 540,486.36214 c -113.771,0 -206,92.229 -206,206 0,113.77104 92.229,206.00004 206,206.00004 113.771,0 206,-92.229 206,-206.00004 0,-113.771 -92.229,-206 -206,-206 z m -59.691,174.716 0,76.481 72.285,0 32.355,32.357 -136.996,0 0,-108.838 -28.224,0 44.05,-44.27 44.273,44.27 -27.743,0 z m 157.705,64.243 0,-108.513 -137.008,0 32.355,32.356 72.297,0 0,76.157 -27.71,0 44.272,44.271 44.05,-44.271 -28.256,0 z"
       id="retweet-4-icon" />
  </g>
</svg>
